<svg width="252" height="321" viewBox="0 0 252 321" fill="none" xmlns="http://www.w3.org/2000/svg"><g clip-path="url(#clip0)"><path d="M125.92 0C106.86 0 90.1 9.69 81.64 23.84a37.08 37.08 0 00-21.37-6.61c-19.22 0-34.9 14-34.9 31.37v.93C10.3 56.14 0 70.13 0 86.29c0 18.6 13.68 34.3 32.44 39.53 2.62 20.6 21.99 36.76 45.82 36.76 15.22 0 28.6-.47 37.05-10.62h21.53c8.46 10.16 21.83 10.62 37.05 10.62 23.68 0 43.2-16 45.82-36.76 18.76-5.23 32.44-20.92 32.44-39.53 0-16.15-10.3-30.15-25.37-36.92v-.92c0-17.38-15.68-31.38-34.9-31.38a36.72 36.72 0 00-21.37 6.62C161.75 9.69 145.14 0 125.92 0z" fill="#50B946"/><path d="M178.81 125.82l-11.07-3.85s-9.38 33.07-19.83 32.46c-10.45-.47-15.38-26.46-13.84-36.92h-16.3c1.54 10.46-3.38 36.45-13.83 36.92-10.46.46-19.84-32.46-19.84-32.46l-11.07 3.85c22.3 62.44-10.45 117.66 0 133.81 10.46 16.15 46.28 14.61 52.74 14.61 6.61 0 42.44 1.54 52.74-14.6 10.76-16.16-21.99-71.38.3-133.82z" fill="#EEF8ED"/><path d="M76.1 122.59c-9.68 1.53-18.9-3.7-21.52-12 0 .61.16 1.08.3 1.69 1.85 9.23 11.7 15.23 22 13.69 10.3-1.7 17.06-10.46 15.22-19.69-.16-.61-.31-1.08-.46-1.69.77 8.61-5.85 16.46-15.53 18zM175.59 122.9c10.14 1.68 19.83-3.85 22.75-12.62 0 .62-.15 1.23-.3 1.85-2 9.69-12.3 16.15-23.22 14.3-10.77-1.85-18-11.07-16-20.76.16-.62.31-1.23.47-1.7-.77 8.93 6.15 17.23 16.3 18.92zM127 114.74c13.38 0 24.45-9.23 25.68-20.92.15.77.15 1.54.15 2.31 0 12.77-11.53 23.23-25.83 23.23-14.3 0-25.83-10.31-25.83-23.23 0-.77 0-1.54.15-2.3 1.23 11.68 12.3 20.91 25.68 20.91z" fill="#2A9F1F"/><path d="M80.87 263.48c-6-3.08-6.15-11.08 8.61-14.77 25.22-6.46 57.97-6.61 73.19-2 14.3 4.3 13.53 14.77 4.77 19.69-9.07 4.92-63.66 8.77-86.57-2.92z" fill="#D7EED4"/><path d="M125.92 321c27.52 0 49.82-4.13 49.82-9.23 0-5.1-22.3-9.23-49.82-9.23-27.5 0-49.81 4.13-49.81 9.23 0 5.1 22.3 9.23 49.81 9.23z" fill="#F7F7F7"/><path d="M151.9 259.63c.78 3.85 1.4 7.85 2 11.69.62 4 1.24 7.84 1.7 11.84l.15 1.54.16 1.54c0 1.08.15 2.15.15 3.07 0 2 0 4-.16 6l-.46 12-3.38-3.07 14.6-4.93a6.3 6.3 0 018 4 6.31 6.31 0 01-4 8c-.92.3-1.69.3-2.6.3l-15.38-1.38-1.23-.15c-1.39-.15-2.31-1.23-2.16-2.62V307l.47-11.84c0-2 .15-3.85.15-5.85v-2.76l-.16-1.39-.15-1.38c-.46-3.85-1.07-7.7-1.69-11.54-.62-3.84-1.38-7.84-2-11.69a3 3 0 012.46-3.53c1.7-.16 3.23.92 3.54 2.61zM107.78 260.7c-.77 3.85-1.38 7.7-2 11.7-.61 3.84-1.23 7.84-1.69 11.53l-.15 1.39-.16 1.38v2.77c0 1.84 0 3.84.16 5.84l.46 11.85c.3 1.23-.46 2.61-1.7 2.92h-.45l-1.23.15-15.38 1.39a6.36 6.36 0 01-6.92-5.7 6.36 6.36 0 015.69-6.91c.92-.16 1.85 0 2.61.3l14.61 4.93-3.38 3.07-.46-12c0-2-.16-4-.16-6 0-1.07 0-2 .16-3.07l.15-1.54.15-1.54c.47-4 1.08-8 1.7-11.84.61-4 1.38-7.84 2-11.69a3 3 0 013.53-2.46 3 3 0 012.46 3.54z" fill="#50B946"/><path d="M145.14 228.56c-.92 0-1.69-.62-2-1.54-1.69-6.46-7.38-11.07-13.99-11.07-6.6 0-12.3 4.46-13.99 11.07a2.2 2.2 0 01-2.46 1.54 2.2 2.2 0 01-1.54-2.46 18.7 18.7 0 0118-14.15 18.7 18.7 0 0117.98 14.15c.31 1.08-.46 2.15-1.53 2.46h-.47z" fill="#A6D5A1"/><path d="M117.62 194.57a9.12 9.12 0 01-8.92 9.38 9.12 9.12 0 01-9.38-8.92 9.12 9.12 0 018.92-9.38 9.12 9.12 0 019.38 8.92z" fill="#000"/><path d="M108.4 192.88c0 1.23-.93 2.3-2.16 2.3s-2.3-.92-2.3-2.15.92-2.3 2.15-2.3 2.3.92 2.3 2.15zM111.47 197.34c0 .46-.3.76-.77.76-.46 0-.77-.3-.77-.76 0-.47.31-.77.77-.77.46.15.77.46.77.77z" fill="#fff"/><path d="M97.48 190.88c-1.54 0-3.08-.16-4.77-.62a2.2 2.2 0 01-1.53-2.46 2.2 2.2 0 012.46-1.54c11.83 3.08 15.68-8.76 15.83-9.23.31-1.07 1.54-1.69 2.62-1.38 1.07.3 1.69 1.54 1.38 2.61 0 .16-1.23 4-4.46 7.39-2.3 2.46-6 5.23-11.53 5.23z" fill="#A6D4A1"/><path d="M146.53 203.03a9.23 9.23 0 100-18.45 9.23 9.23 0 000 18.45z" fill="#000"/><path d="M146.37 191.8c0 1.23-.92 2.3-2.15 2.3s-2.3-.91-2.3-2.14c0-1.24.92-2.31 2.15-2.31s2.3.92 2.3 2.15zM149.45 196.26c0 .46-.3.77-.77.77-.46 0-.77-.3-.77-.77 0-.46.3-.77.77-.77.46.16.77.46.77.77z" fill="#fff"/><path d="M155.9 189.19c-5.53 0-9.22-2.62-11.68-5.23-3.07-3.39-4.3-7.23-4.46-7.39-.3-1.07.3-2.3 1.39-2.61 1.07-.31 2.3.3 2.6 1.38.16.46 4 12.3 15.85 9.23 1.07-.3 2.15.46 2.46 1.54.3 1.08-.47 2.15-1.54 2.46-1.54.46-3.08.62-4.61.62z" fill="#A6D4A1"/><path d="M166.97 246.25c-.76 0-1.53-.3-2-.92a2.66 2.66 0 01.31-3.7c22.76-19.38 2.16-62.75 2-63.21-.61-1.38-.15-2.92 1.23-3.54 1.39-.61 2.92-.15 3.54 1.23.92 2 22.45 47.68-3.38 69.52-.46.47-1.08.62-1.7.62z" fill="#50B946"/><path d="M171.28 250.25h-.46c-1.38-.3-2.46-1.7-2.15-3.08l1.38-8.15-7.53.61a2.72 2.72 0 01-2.93-2.46 2.72 2.72 0 012.47-2.92l11.06-.92c.77 0 1.7.3 2.16.92.61.62.77 1.39.61 2.3l-2 11.54a2.78 2.78 0 01-2.61 2.16zM84.26 246.25c-.62 0-1.23-.16-1.7-.62-25.83-22-4.3-67.67-3.38-69.52.62-1.38 2.15-1.84 3.54-1.23 1.38.62 1.84 2.16 1.23 3.54-.16.46-20.76 43.99 2 63.22a2.66 2.66 0 01.3 3.69c-.46.61-1.23.92-2 .92z" fill="#50B946"/><path d="M79.95 250.25c-1.23 0-2.3-.93-2.61-2.16l-2-11.53c-.15-.77.15-1.7.61-2.3a3.04 3.04 0 012.16-.93l11.07.92a2.86 2.86 0 012.46 2.92c-.16 1.39-1.39 2.62-2.92 2.47l-7.54-.62 1.39 8.15c.3 1.39-.77 2.77-2.16 3.08h-.46z" fill="#50B946"/></g><defs><clipPath id="clip0"><path fill="#fff" d="M0 0h252v321H0z"/></clipPath></defs></svg>